<svg xmlns="http://www.w3.org/2000/svg" viewBox="100 100 300 100"><path fill="#7145c7" d="M100 100.043h100v100H100z"/><path fill="#fff" d="M127.419 121.301l69.48-10.53-21.8 11.8c.3 3.093.677 6.183 1.13 9.27.46 3.087.917 6.173 1.37 9.26.453 3.087.847 6.173 1.18 9.26.333 3.093.5 6.183.5 9.27 0 4.967-.59 9.417-1.77 13.35-1.18 3.933-2.983 7.263-5.41 9.99-2.42 2.727-5.523 4.817-9.31 6.27-3.78 1.453-8.243 2.18-13.39 2.18-6.6 0-12.02-1.787-16.26-5.36-4.24-3.573-6.903-8.6-7.99-15.08l-15.62-7.99h40.59c-2.18 1.207-4.36 2.417-6.54 3.63a281.932 281.932 0 0 1-6.72 3.63c.067 1.82.387 3.533.96 5.14.573 1.6 1.39 3.007 2.45 4.22 1.06 1.207 2.363 2.16 3.91 2.86 1.54.693 3.28 1.04 5.22 1.04 3.087 0 5.583-.697 7.49-2.09 1.907-1.387 3.39-3.157 4.45-5.31 1.06-2.147 1.77-4.523 2.13-7.13.367-2.6.55-5.143.55-7.63 0-3.087-.167-6.127-.5-9.12-.333-3-.743-6-1.23-9-.48-2.993-1.01-5.973-1.59-8.94a762.196 762.196 0 0 1-1.68-8.99l-31.6-4z" white-space="pre"/><g transform="matrix(.42426 0 0 .42426 -55.193 51.893)"><path fill="#ffbf20" d="M423.576 178.737l35.356 35.356-35.356 35.355-35.355-35.355z"/><path fill="#7145c7" d="M446.984 214.204h-7.839c-1.142 0-2.123.87-2.333 2.069l-.593 3.372-1.88-10.078c-.199-1.059-1.039-1.788-2.051-1.788l-.051.001c-1.038.024-1.87.803-2.022 1.891l-2.422 17.214-2.787-26.508c-.118-1.13-.981-1.962-2.051-1.976h-.029c-1.055 0-1.924.801-2.071 1.912l-2.645 19.78-1.231-11.405c-.121-1.11-.94-1.919-1.991-1.967-1.052-.054-1.916.669-2.135 1.746l-1.294 6.348-.268-1.583c-.162-.973-.894-1.702-1.82-1.814-.921-.111-1.762.393-2.151 1.295l-.625 1.491h-6.527a1.09 1.09 0 0 0 0 2.177h6.663c.796 0 1.519-.497 1.842-1.266l.52-1.232.297 1.759c.178 1.06 1.011 1.813 2.026 1.831 1.017.034 1.865-.7 2.079-1.748l1.278-6.263 1.25 11.579c.123 1.13.988 1.959 2.057 1.972h.025c1.07 0 1.918-.783 2.067-1.911l2.644-19.775 2.785 26.481c.118 1.126.978 1.958 2.045 1.977h.04c1.059 0 1.906-.772 2.065-1.892l2.447-17.396 1.872 10.041c.198 1.054 1.04 1.786 2.051 1.786h.016c1.018-.008 1.857-.754 2.04-1.813l.679-3.862c.031-.179.137-.268.188-.268h7.84a1.09 1.09 0 0 0 0-2.177z"/></g><g><path fill="#ffbf20" d="M200 100.043h200v100H200z"/><path fill="#7145c7" d="M203.897 151.015v-9.82c0-1 .187-1.933.56-2.8.38-.867.893-1.63 1.54-2.29a7.126 7.126 0 0 1 2.29-1.56 7.052 7.052 0 0 1 2.78-.56h18.61v-7.55h-23.55v-7.21h23.55c1 0 1.94.19 2.82.57.88.373 1.643.883 2.29 1.53a7.143 7.143 0 0 1 1.53 2.29c.38.88.57 1.82.57 2.82v31.79h-7.21v-6.59c-.073.9-.32 1.753-.74 2.56a7.529 7.529 0 0 1-1.59 2.11 7.587 7.587 0 0 1-2.21 1.41c-.833.34-1.713.51-2.64.51h-11.43c-.973 0-1.9-.19-2.78-.57a7.285 7.285 0 0 1-2.29-1.54 7.32 7.32 0 0 1-1.54-2.28 7.151 7.151 0 0 1-.56-2.82zm7.17-9.82v9.82h18.61v-9.82h-18.61zm85.217-14.76h-16.48v31.79h-7.21v-31.79h-16.52v31.79h-7.17v-39h7.17v6.88a7.45 7.45 0 0 1 .66-2.69 7.436 7.436 0 0 1 1.56-2.2 7.197 7.197 0 0 1 2.25-1.46 7.125 7.125 0 0 1 2.75-.53h9.3c.954 0 1.857.177 2.71.53a7.43 7.43 0 0 1 2.27 1.46c.66.627 1.19 1.36 1.59 2.2.407.847.62 1.743.64 2.69a7.704 7.704 0 0 1 .64-2.69c.38-.84.894-1.573 1.54-2.2a7.163 7.163 0 0 1 2.26-1.46 7.1 7.1 0 0 1 2.74-.53h9.3c1.007 0 1.947.19 2.82.57.88.373 1.644.883 2.29 1.53a7.285 7.285 0 0 1 1.54 2.29c.38.88.57 1.82.57 2.82v31.79h-7.22v-31.79zm53.724 0v24.58c0 1-.187 1.94-.56 2.82a7.32 7.32 0 0 1-1.54 2.28 7.285 7.285 0 0 1-2.29 1.54c-.88.38-1.82.57-2.82.57h-20.11c-.973 0-1.9-.19-2.78-.57a7.285 7.285 0 0 1-2.29-1.54 7.32 7.32 0 0 1-1.54-2.28 7.151 7.151 0 0 1-.56-2.82v-46.81h7.17v21.9a7.41 7.41 0 0 1 .66-2.69 7.4 7.4 0 0 1 1.56-2.2 7.197 7.197 0 0 1 2.25-1.46 7.121 7.121 0 0 1 2.75-.53h12.89c1 0 1.94.19 2.82.57.88.373 1.643.883 2.29 1.53a7.285 7.285 0 0 1 1.54 2.29c.373.88.56 1.82.56 2.82zm-7.21 0h-20.11v24.58h20.11v-24.58zm19.229 24.58v-9.82c0-1 .187-1.933.56-2.8.38-.867.893-1.63 1.54-2.29a7.126 7.126 0 0 1 2.29-1.56 7.052 7.052 0 0 1 2.78-.56h18.61v-7.55h-23.55v-7.21h23.55c1 0 1.94.19 2.82.57.88.373 1.643.883 2.29 1.53a7.143 7.143 0 0 1 1.53 2.29c.38.88.57 1.82.57 2.82v31.79h-7.21v-6.59c-.073.9-.32 1.753-.74 2.56a7.529 7.529 0 0 1-1.59 2.11 7.587 7.587 0 0 1-2.21 1.41c-.833.34-1.713.51-2.64.51h-11.43c-.973 0-1.9-.19-2.78-.57a7.285 7.285 0 0 1-2.29-1.54 7.32 7.32 0 0 1-1.54-2.28 7.151 7.151 0 0 1-.56-2.82zm7.17-9.82v9.82h18.61v-9.82h-18.61z" white-space="pre"/><path fill="#492d81" d="M238.016 185.36h-1.54l2.51-11.83h1.59l2.53 11.83h-1.57l-.54-2.98h-2.41l-.57 2.98zm1.77-9.49l-.98 5.33h1.97l-.99-5.33zm5.592 9.61c-.333 0-.59-.09-.77-.27a1.37 1.37 0 0 1-.39-.65 3.059 3.059 0 0 1-.11-.81v-6.83h1.56v6.37c0 .3.043.533.13.7.093.173.273.26.54.26.18 0 .363-.05.55-.15.193-.107.377-.233.55-.38v-6.8h1.56v8.44h-1.56v-.83c-.273.26-.583.483-.93.67-.347.187-.723.28-1.13.28zm7.163 0c-.707 0-1.237-.26-1.59-.78-.347-.527-.52-1.41-.52-2.65v-1.64c0-.64.053-1.237.16-1.79.107-.547.307-.987.6-1.32.3-.333.737-.5 1.31-.5.28 0 .537.063.77.19.24.127.45.283.63.47v-3.93h1.56v11.83h-1.56v-.54c-.18.193-.38.35-.6.47-.22.127-.473.19-.76.19zm.4-1.23c.147 0 .303-.027.47-.08a2.19 2.19 0 0 0 .49-.24v-5.53a2.236 2.236 0 0 0-.45-.26 1.334 1.334 0 0 0-.54-.11c-.36 0-.603.173-.73.52-.127.347-.19.763-.19 1.25v2.38c0 .387.023.74.07 1.06.04.313.13.56.27.74.133.18.337.27.61.27zm5.762 1.11h-1.56v-8.44h1.56v8.44zm0-9.69h-1.56v-1.64h1.56v1.64zm4.003 9.81c-.62 0-1.11-.127-1.47-.38-.367-.253-.623-.613-.77-1.08-.153-.467-.23-1.017-.23-1.65v-2.46c0-.627.077-1.177.23-1.65.147-.467.403-.827.77-1.08.36-.253.85-.38 1.47-.38s1.11.127 1.47.38c.353.253.607.613.76 1.08.147.473.22 1.023.22 1.65v2.46c0 .633-.073 1.183-.22 1.65-.153.467-.407.827-.76 1.08-.36.253-.85.38-1.47.38zm0-1.16c.3 0 .51-.087.63-.26.127-.173.2-.403.22-.69a9.62 9.62 0 0 0 .04-.9v-2.64c0-.327-.013-.63-.04-.91-.02-.28-.093-.51-.22-.69-.12-.18-.33-.27-.63-.27s-.513.09-.64.27c-.127.18-.203.41-.23.69-.027.28-.04.583-.04.91v2.64c0 .313.013.613.04.9.027.287.103.517.23.69.127.173.34.26.64.26zm9.007 1.04h-1.65v-11.83h2.93c.713 0 1.283.13 1.71.39.42.26.726.633.92 1.12.193.487.29 1.073.29 1.76 0 .627-.107 1.167-.32 1.62-.22.46-.547.813-.98 1.06-.427.253-.96.38-1.6.38h-1.3v5.5zm0-10.64v3.95h.76c.473 0 .846-.053 1.12-.16.273-.107.47-.293.59-.56.113-.267.17-.643.17-1.13 0-.567-.04-1-.12-1.3-.087-.3-.26-.51-.52-.63-.26-.113-.67-.17-1.23-.17h-.77zm6.936 10.64h-1.57v-11.83h1.57v11.83zm2.843.12c-.333 0-.59-.09-.77-.27a1.386 1.386 0 0 1-.39-.65 3.059 3.059 0 0 1-.11-.81v-6.83h1.56v6.37c0 .3.044.533.13.7.094.173.274.26.54.26.18 0 .364-.05.55-.15a3.33 3.33 0 0 0 .55-.38v-6.8h1.56v8.44h-1.56v-.83c-.273.26-.583.483-.93.67a2.34 2.34 0 0 1-1.13.28zm7.403 2.49c-.506 0-.963-.053-1.37-.16-.413-.107-.736-.277-.97-.51-.233-.233-.35-.54-.35-.92 0-.273.06-.51.18-.71a1.85 1.85 0 0 1 .45-.54c.187-.147.38-.27.58-.37-.273-.08-.476-.203-.61-.37a.864.864 0 0 1-.2-.53c0-.313.08-.583.24-.81.167-.22.397-.463.69-.73-.32-.24-.563-.55-.73-.93-.166-.38-.25-.907-.25-1.58 0-.66.09-1.213.27-1.66.18-.44.45-.773.81-1 .354-.233.787-.35 1.3-.35.46 0 .827.08 1.1.24.28.153.494.387.64.7.047-.08.177-.213.39-.4.214-.193.464-.353.75-.48l.23-.1.4 1.01c-.126.02-.296.067-.51.14a13.9 13.9 0 0 0-.58.22c-.18.073-.293.133-.34.18.067.167.127.403.18.71.054.313.08.593.08.84 0 .573-.073 1.077-.22 1.51-.146.44-.386.783-.72 1.03-.34.253-.806.38-1.4.38a3.058 3.058 0 0 1-.8-.11c-.06.087-.12.19-.18.31a.71.71 0 0 0-.1.34c0 .107.057.19.17.25.114.067.29.11.53.13l1.32.11c.66.06 1.15.26 1.47.6.32.34.48.827.48 1.46 0 .46-.106.847-.32 1.16-.213.32-.536.557-.97.71-.433.153-.98.23-1.64.23zm.12-1.22c.554 0 .96-.067 1.22-.2a.668.668 0 0 0 .4-.64.834.834 0 0 0-.1-.43c-.06-.12-.173-.213-.34-.28-.166-.067-.406-.117-.72-.15l-1.33-.11a7.326 7.326 0 0 0-.3.32c-.1.107-.18.22-.24.34a.955.955 0 0 0-.08.39c0 .253.107.443.32.57.214.127.604.19 1.17.19zm-.08-5.07c.227 0 .407-.04.54-.12a.808.808 0 0 0 .29-.37c.074-.16.12-.357.14-.59.027-.233.04-.497.04-.79 0-.293-.013-.557-.04-.79a2.24 2.24 0 0 0-.13-.62.729.729 0 0 0-.29-.38c-.133-.093-.31-.14-.53-.14a.99.99 0 0 0-.54.14.774.774 0 0 0-.31.37c-.066.16-.116.36-.15.6a7.49 7.49 0 0 0 0 1.56c.02.227.067.423.14.59.074.167.18.297.32.39.134.1.307.15.52.15zm5.78 3.68h-1.56v-8.44h1.56v8.44zm0-9.69h-1.56v-1.64h1.56v1.64zm3.243 9.69h-1.56v-8.44h1.56v.83c.28-.26.593-.483.94-.67.34-.187.713-.28 1.12-.28.34 0 .6.09.78.27.18.173.307.39.38.65.073.267.11.537.11.81v6.83h-1.56v-6.38c0-.3-.043-.533-.13-.7-.093-.167-.273-.25-.54-.25-.18 0-.363.05-.55.15a3.372 3.372 0 0 0-.55.38v6.8zm9.971 0h-1.65v-11.83h4.57v1.19h-2.92v3.94h2.26v1.17h-2.26v5.53zm5.528 0h-1.56v-8.44h1.56v1.2c.313-.52.626-.867.94-1.04.313-.173.623-.26.93-.26h.11c.033 0 .08.003.14.01v1.73a2.189 2.189 0 0 0-.86-.18c-.24 0-.46.057-.66.17-.2.113-.4.33-.6.65v6.16zm4.606.12a1.41 1.41 0 0 1-.88-.29 1.947 1.947 0 0 1-.6-.73 2.069 2.069 0 0 1-.22-.94c0-.527.09-.97.27-1.33.173-.36.413-.663.72-.91.306-.247.66-.463 1.06-.65.406-.187.833-.367 1.28-.54v-.6c0-.34-.02-.623-.06-.85-.034-.22-.114-.387-.24-.5-.12-.113-.3-.17-.54-.17-.22 0-.394.05-.52.15a.78.78 0 0 0-.29.41c-.06.18-.09.393-.09.64v.42l-1.54-.06c.02-.933.233-1.62.64-2.06.406-.447 1.04-.67 1.9-.67.833 0 1.426.23 1.78.69.346.46.52 1.123.52 1.99v3.85c0 .26.01.513.03.76.013.24.03.467.05.68.026.207.05.403.07.59h-1.43c-.027-.153-.064-.35-.11-.59a7.357 7.357 0 0 1-.1-.65c-.094.333-.28.643-.56.93-.274.287-.654.43-1.14.43zm.61-1.35c.153 0 .3-.043.44-.13.133-.087.253-.187.36-.3.106-.107.18-.197.22-.27v-2.39c-.24.133-.467.27-.68.41-.22.133-.41.277-.57.43-.16.147-.287.317-.38.51-.087.187-.13.403-.13.65 0 .34.063.607.19.8.126.193.31.29.55.29zm5.528 1.23h-1.44v-8.44h1.44v.8c.287-.32.6-.557.94-.71.34-.153.69-.23 1.05-.23.313 0 .593.077.84.23.247.153.423.43.53.83.3-.367.63-.637.99-.81.353-.167.723-.25 1.11-.25.273 0 .523.063.75.19.22.133.4.343.54.63.133.287.2.663.2 1.13v6.63h-1.43v-6.53c0-.407-.063-.68-.19-.82-.133-.14-.313-.21-.54-.21-.213 0-.437.06-.67.18-.233.12-.447.287-.64.5v6.88h-1.43v-6.53c0-.407-.067-.68-.2-.82a.697.697 0 0 0-.53-.21c-.213 0-.437.06-.67.18-.227.12-.443.287-.65.5v6.88zm10.816.12c-.66 0-1.17-.13-1.53-.39-.36-.26-.61-.64-.75-1.14-.14-.5-.21-1.117-.21-1.85v-1.92c0-.753.074-1.377.22-1.87.147-.5.4-.877.76-1.13.367-.253.87-.38 1.51-.38.714 0 1.237.147 1.57.44.34.293.564.717.67 1.27.107.547.16 1.203.16 1.97v.69h-3.33v1.69c0 .34.03.62.09.84.067.213.17.37.31.47.14.1.324.15.55.15.234 0 .41-.053.53-.16a.922.922 0 0 0 .25-.49c.047-.207.07-.45.07-.73v-.51h1.51v.32c0 .847-.18 1.513-.54 2-.36.487-.973.73-1.84.73zm-.93-5.61v.45h1.8v-.76c0-.347-.02-.64-.06-.88-.04-.24-.12-.42-.24-.54-.126-.12-.32-.18-.58-.18-.253 0-.446.057-.58.17-.126.12-.216.317-.27.59-.046.28-.07.663-.07 1.15zm7.126 5.49h-1.4l-1.36-8.44h1.28l.88 6.22 1.12-6.22h1.2l1.13 6.19.87-6.19h1.29l-1.41 8.44h-1.31l-1.15-5.96-1.14 5.96zm8.523.12c-.62 0-1.11-.127-1.47-.38-.366-.253-.623-.613-.77-1.08-.153-.467-.23-1.017-.23-1.65v-2.46c0-.627.077-1.177.23-1.65.147-.467.404-.827.77-1.08.36-.253.85-.38 1.47-.38s1.11.127 1.47.38c.354.253.607.613.76 1.08.147.473.22 1.023.22 1.65v2.46c0 .633-.073 1.183-.22 1.65-.153.467-.406.827-.76 1.08-.36.253-.85.38-1.47.38zm0-1.16c.3 0 .51-.087.63-.26.127-.173.2-.403.22-.69a9.62 9.62 0 0 0 .04-.9v-2.64c0-.327-.013-.63-.04-.91-.02-.28-.093-.51-.22-.69-.12-.18-.33-.27-.63-.27s-.513.09-.64.27c-.126.18-.203.41-.23.69-.026.28-.04.583-.04.91v2.64c0 .313.014.613.04.9.027.287.104.517.23.69.127.173.34.26.64.26zm5.484 1.04h-1.56v-8.44h1.56v1.2c.314-.52.627-.867.94-1.04.314-.173.624-.26.93-.26h.11c.034 0 .08.003.14.01v1.73a2.174 2.174 0 0 0-.86-.18c-.24 0-.46.057-.66.17-.2.113-.4.33-.6.65v6.16zm4.676-.01h-1.56v-11.83h1.56v7.05l2.28-3.65h1.63l-1.98 3.3 1.92 5.14h-1.56l-1.57-4.32-.72 1.08v3.23z" white-space="pre"/></g></svg>